<?xml version="1.0" encoding="UTF-8" standalone="no"?>
<svg
   width="1024"
   height="1024"
   viewBox="0 0 1024 1024"
   version="1.1"
   id="svg1"
   xml:space="preserve"
   xmlns="http://www.w3.org/2000/svg"
   xmlns:svg="http://www.w3.org/2000/svg"><defs
     id="defs1" /><g
     id="layer1"><path
       id="path3"
       style="baseline-shift:baseline;display:inline;overflow:visible;opacity:1;vector-effect:none;fill:#132c3d;stroke-width:0.9;stroke-linecap:round;enable-background:accumulate;stop-color:#000000;stop-opacity:1"
       d="m 404.71585,143.25541 c -138.62609,0 -251.77148,113.14539 -251.77148,251.77148 0,138.62609 113.14539,251.77323 251.77148,251.77324 60.35846,0 115.88585,-21.45097 159.34747,-57.11484 l 21.99023,21.99023 a 53.685451,53.685451 0 0 0 12.82852,53.43399 l 185.4791,190.16367 a 53.685451,53.685451 0 0 0 75.9164,0.94746 53.685451,53.685451 0 0 0 0.94746,-75.91641 L 675.74593,590.14056 a 53.685451,53.685451 0 0 0 -46.16895,-15.64102 53.685451,53.685451 0 0 0 -4.03066,0.74532 L 601.74555,551.44408 C 635.98776,508.43 656.4891,454.03644 656.4891,395.02689 656.4891,256.4008 543.34194,143.25541 404.71585,143.25541 Z m 0,71.57988 c 99.94107,0 180.1916,80.25053 180.1916,180.1916 0,99.94106 -80.25053,180.1916 -180.1916,180.1916 -99.94106,0 -180.1916,-80.25054 -180.1916,-180.1916 0,-99.94106 80.25054,-180.19159 180.1916,-180.1916 z" /></g></svg>
