<?xml version="1.0" encoding="UTF-8" standalone="no"?>
<!-- Created with Inkscape (http://www.inkscape.org/) -->

<svg
   width="32"
   height="32"
   viewBox="0 0 32 32"
   version="1.1"
   id="svg1"
   xml:space="preserve"
   inkscape:version="1.4 (e7c3feb100, 2024-10-09)"
   sodipodi:docname="icon_16x16@2.svg"
   xmlns:inkscape="http://www.inkscape.org/namespaces/inkscape"
   xmlns:sodipodi="http://sodipodi.sourceforge.net/DTD/sodipodi-0.dtd"
   xmlns:xlink="http://www.w3.org/1999/xlink"
   xmlns="http://www.w3.org/2000/svg"
   xmlns:svg="http://www.w3.org/2000/svg"><sodipodi:namedview
     id="namedview1"
     pagecolor="#ffffff"
     bordercolor="#000000"
     borderopacity="0.25"
     inkscape:showpageshadow="2"
     inkscape:pageopacity="0.0"
     inkscape:pagecheckerboard="0"
     inkscape:deskcolor="#d1d1d1"
     inkscape:document-units="px"
     inkscape:zoom="1.2075723"
     inkscape:cx="8.6951314"
     inkscape:cy="39.335118"
     inkscape:window-width="3840"
     inkscape:window-height="2097"
     inkscape:window-x="0"
     inkscape:window-y="0"
     inkscape:window-maximized="1"
     inkscape:current-layer="layer1" /><defs
     id="defs1"><linearGradient
       id="linearGradient4"
       inkscape:collect="always"><stop
         style="stop-color:#5eddfd;stop-opacity:1;"
         offset="0"
         id="stop4" /><stop
         style="stop-color:#4ebafd;stop-opacity:1;"
         offset="1"
         id="stop5" /></linearGradient><linearGradient
       inkscape:collect="always"
       xlink:href="#linearGradient4"
       id="linearGradient2"
       x1="14.939183"
       y1="2.0256817"
       x2="14.939183"
       y2="29.974318"
       gradientUnits="userSpaceOnUse" /></defs><g
     inkscape:label="Ebene 1"
     inkscape:groupmode="layer"
     id="layer1"><path
       d="m 11.630589,2 h 8.738821 c 2.773084,0 4.159626,0 5.652179,0.471942 v 0 C 27.65121,3.065075 28.934925,4.34879 29.528058,5.978411 30,7.470964 30,8.857506 30,11.630589 v 8.738821 c 0,2.773084 0,4.159626 -0.471942,5.652179 v 0 C 28.934925,27.65121 27.65121,28.934925 26.021589,29.528058 24.529036,30 23.142494,30 20.369411,30 H 11.630589 C 8.8575056,30 7.4709637,30 5.978411,29.528058 v 0 C 4.34879,28.934925 3.065075,27.65121 2.471942,26.021589 2,24.529036 2,23.142494 2,20.369411 V 11.630589 C 2,8.857506 2,7.470964 2.471942,5.978411 v 0 C 3.065075,4.34879 4.34879,3.065075 5.978411,2.471942 7.4709637,2 8.8575056,2 11.630589,2 Z"
       fill="#ffffff"
       id="path1"
       style="fill:url(#linearGradient2);fill-opacity:1" /><g
       inkscape:label="Ebene 1"
       id="layer1-6"
       transform="matrix(0.03125,0,0,0.03125,0.14164251,-0.0513633)"><g
         transform="matrix(3.0907663,0,0,3.0907663,-549.96589,-905.63762)"
         id="g2"
         style="fill:#3681b0;fill-opacity:1"><g
           transform="scale(0.9156,1.092)"
           style="fill:#3681b0;fill-opacity:1"
           id="g1" /></g><circle
         style="fill:none;fill-opacity:1;stroke:#132c3d;stroke-width:96;stroke-dasharray:none;stroke-opacity:1"
         id="path2"
         cx="415.83578"
         cy="407.82947"
         r="193.10893" /><path
         style="fill:none;fill-opacity:1;stroke:#132c3d;stroke-width:96;stroke-linecap:round;stroke-dasharray:none;stroke-opacity:1"
         d="M 564.17687,562.79541 789.63691,785.81917"
         id="path3"
         sodipodi:nodetypes="cc" /></g></g></svg>
