<?xml version="1.0" encoding="UTF-8" standalone="no"?>
<!-- Created with Inkscape (http://www.inkscape.org/) -->

<svg
   width="1024"
   height="1024"
   viewBox="0 0 1024 1024"
   version="1.1"
   id="svg1"
   xml:space="preserve"
   sodipodi:docname="icon_512x512@2.svg"
   inkscape:export-filename="icon.png"
   inkscape:export-xdpi="96"
   inkscape:export-ydpi="96"
   inkscape:version="1.4 (e7c3feb100, 2024-10-09)"
   xmlns:inkscape="http://www.inkscape.org/namespaces/inkscape"
   xmlns:sodipodi="http://sodipodi.sourceforge.net/DTD/sodipodi-0.dtd"
   xmlns:xlink="http://www.w3.org/1999/xlink"
   xmlns="http://www.w3.org/2000/svg"
   xmlns:svg="http://www.w3.org/2000/svg"><sodipodi:namedview
     id="namedview1"
     pagecolor="#fdfdfd"
     bordercolor="#000000"
     borderopacity="0.25"
     inkscape:showpageshadow="2"
     inkscape:pageopacity="0.0"
     inkscape:pagecheckerboard="0"
     inkscape:deskcolor="#d1d1d1"
     inkscape:document-units="mm"
     inkscape:zoom="0.14921424"
     inkscape:cx="331.73778"
     inkscape:cy="392.05374"
     inkscape:window-width="3840"
     inkscape:window-height="2097"
     inkscape:window-x="0"
     inkscape:window-y="0"
     inkscape:window-maximized="1"
     inkscape:current-layer="layer1" /><defs
     id="defs1"><linearGradient
       id="linearGradient4"
       inkscape:collect="always"><stop
         style="stop-color:#5eddfd;stop-opacity:1;"
         offset="0"
         id="stop4" /><stop
         style="stop-color:#4ebafd;stop-opacity:1;"
         offset="1"
         id="stop5" /></linearGradient><linearGradient
       inkscape:collect="always"
       xlink:href="#linearGradient4"
       id="linearGradient6"
       x1="490.95673"
       y1="99.718369"
       x2="490.95673"
       y2="924.28162"
       gradientUnits="userSpaceOnUse" /></defs><g
     inkscape:label="Ebene 1"
     inkscape:groupmode="layer"
     id="layer1"><path
       d="m 383.4145,100 h 257.171 c 81.6079,0 122.4119,0 166.3356,13.8886 v 0 c 47.9574,17.455 85.7353,55.2329 103.1903,103.1903 C 924,261.0026 924,301.8066 924,383.4145 v 257.17101 c 0,81.6079 0,122.41184 -13.8886,166.33554 v 0 C 892.6564,854.87846 854.8785,892.65636 806.9211,910.11143 762.9974,924 722.1934,924 640.5855,924 h -257.171 c -81.6079,0 -122.4118,0 -166.3355,-13.88857 v 0 C 169.1215,892.65636 131.3436,854.87846 113.8886,806.92105 100,762.99735 100,722.19341 100,640.58551 V 383.4145 c 0,-81.6079 0,-122.4119 13.8886,-166.3356 v 0 C 131.3436,169.1215 169.1215,131.3436 217.079,113.8886 261.0027,100 301.8066,100 383.4145,100 Z"
       fill="#ffffff"
       id="path1-2"
       style="fill:url(#linearGradient6)" /><g
       transform="matrix(3.0907663,0,0,3.0907663,-549.96589,-905.63762)"
       id="g2"
       style="fill:#3681b0;fill-opacity:1"><g
         transform="scale(0.9156,1.092)"
         style="fill:#3681b0;fill-opacity:1"
         id="g1"><path
           d="m 473.4008,320.582 c 4.842,1.9e-4 7.547,3.062 8.117,9.185 l -4.059,28.84 h 1.495 c 0,0 -4.6286,8.6148 -8.7616,20.7248 -1.567,10.4 -4.201,20.01 -7.904,28.84 -3.276,9.114 -4.913,17.52 -4.913,25.21 l -6.195,15.17 c -1.7e-4,1.282 2.278,12.1762 -2.564,12.1762 l 0.8544,0.8544 v 2.991 h -1.495 c 0.9967,2.991 0,5.981 0,5.981 v 0.8544 c 2.136,4e-5 3.204,1.282 3.204,3.845 l -8.972,2.991 0.8544,0.8544 v 0.6408 c -1.6e-4,0.9969 -1.068,1.495 -3.204,1.495 v 0.8544 c 2.706,3e-5 4.058,0.4985 4.059,1.495 -3.845,1.282 -8.901,7.619 -15.17,19.01 -6.408,10.11 -11.96,15.17 -16.66,15.17 h -1.709 c -3.56,-2.279 -6.48,-9.826 -8.758,-22.64 -9.114,-19.51 -13.67,-30.97 -13.67,-34.39 -10e-5,-8.829 -2.919,-18.23 -8.758,-28.2 -1.567,-4.415 -2.635,-9.968 -3.204,-16.66 l -3.845,-0.8544 c -9.684,14.67 -14.74,26.13 -15.17,34.39 -2.706,4.842 -4.842,10.68 -6.408,17.52 3.14872,1.02986 0.997,3.7024 -0.854,2.1364 -1.994,3.845 -4.628,14.53 -7.904,32.04 -2.563,8.117 -5.768,12.18 -9.612,12.18 -10.82,-3.56 -19.87,-9.399 -27.13,-17.52 -1.139,2e-5 -2.991,-4.059 -5.554,-12.18 -1.566,3e-5 -2.635,-4.059 -3.204,-12.18 -5.411,-11.53 -9.114,-24.71 -11.11,-39.52 v -22.22 h -0.8544 l -3.845,0.8544 v -0.8544 c 1e-5,-0.9967 1.282,-1.495 3.845,-1.495 l -0.8544,-12.82 v -10.04 l -6.195,-32.04 v -13.67 c 2.706,-8.544 7.405,-12.82 14.1,-12.82 l 0.002,1.495 c 10.4,11.39 16.52,21.01 18.37,28.84 l 1.709,1.495 v 1.709 c 2.136,6.551 3.703,9.826 4.699,9.826 h 1.709 c 0,0 1.6372,4.6998 0.6412,7.6898 l 0.8542,1.495 c 1.994,23.78 5.696,41.8 11.11,54.04 l 3.204,2.136 h 1.709 c 2.136,8e-5 6.622,-8.331 13.46,-24.99 4.415,-7.547 7.619,-14.17 9.612,-19.87 l -0.8544,-2.35 c 4.415,-5.554 8.972,-8.331 13.67,-8.331 h 1.495 c 2.99,1.4e-4 5.127,1.567 6.408,4.699 3.987,4.7 7.191,11.75 9.612,21.15 l 11.96,22.22 c 1.566,1.567 2.35,3.347 2.35,5.34 4.414,8.402 8.402,13.96 11.96,16.66 h 2.563 c 2.99,6e-5 6.978,-10.4 11.96,-31.19 0.8543,9e-5 3.204,-5.554 7.049,-16.66 v -0.8544 l 3.204,-2.9904 c 6.123,-18.37 11.75,-32.61 16.88,-42.72 1.709,-20.79 4.058,-31.19 7.049,-31.19 l 9.612,-3.845"
           id="path1"
           style="fill:#3681b0;fill-opacity:1"
           sodipodi:nodetypes="ccccccccccccccccccccccsccccccccccccccccccscccccsccccscccccccccsccccccsccccccc" /></g></g><circle
       style="fill:none;fill-opacity:1;stroke:#132c3d;stroke-width:64;stroke-dasharray:none;stroke-opacity:1"
       id="path2"
       cx="415.83578"
       cy="407.82947"
       r="193.10893" /><path
       style="fill:none;fill-opacity:1;stroke:#132c3d;stroke-width:96;stroke-linecap:round;stroke-dasharray:none;stroke-opacity:1"
       d="M 623.80063,615.79431 789.63691,785.81917"
       id="path3"
       sodipodi:nodetypes="cc" /><path
       style="fill:none;fill-opacity:1;stroke:#132c3d;stroke-width:48;stroke-linecap:round;stroke-dasharray:none;stroke-opacity:1"
       d="m 552.07828,541.70253 77.00663,77.00663"
       id="path4" /></g></svg>
