<?xml version="1.0" encoding="UTF-8" standalone="no"?>
<!-- Created with Inkscape (http://www.inkscape.org/) -->

<svg
   width="128"
   height="128"
   viewBox="0 0 128 128"
   version="1.1"
   id="svg1"
   xml:space="preserve"
   inkscape:version="1.4 (e7c3feb100, 2024-10-09)"
   sodipodi:docname="icon_128x128.svg"
   xmlns:inkscape="http://www.inkscape.org/namespaces/inkscape"
   xmlns:sodipodi="http://sodipodi.sourceforge.net/DTD/sodipodi-0.dtd"
   xmlns:xlink="http://www.w3.org/1999/xlink"
   xmlns="http://www.w3.org/2000/svg"
   xmlns:svg="http://www.w3.org/2000/svg"><sodipodi:namedview
     id="namedview1"
     pagecolor="#ffffff"
     bordercolor="#000000"
     borderopacity="0.25"
     inkscape:showpageshadow="2"
     inkscape:pageopacity="0.0"
     inkscape:pagecheckerboard="0"
     inkscape:deskcolor="#d1d1d1"
     inkscape:document-units="mm"
     inkscape:zoom="1"
     inkscape:cx="-6.5"
     inkscape:cy="51.5"
     inkscape:window-width="3840"
     inkscape:window-height="2097"
     inkscape:window-x="0"
     inkscape:window-y="0"
     inkscape:window-maximized="1"
     inkscape:current-layer="layer1" /><defs
     id="defs1"><linearGradient
       id="linearGradient4"
       inkscape:collect="always"><stop
         style="stop-color:#5eddfd;stop-opacity:1;"
         offset="0"
         id="stop4" /><stop
         style="stop-color:#4ebafd;stop-opacity:1;"
         offset="1"
         id="stop5" /></linearGradient><linearGradient
       inkscape:collect="always"
       xlink:href="#linearGradient4"
       id="linearGradient2"
       x1="60.015968"
       y1="12.177886"
       x2="60.015968"
       y2="116.11489"
       gradientUnits="userSpaceOnUse" /></defs><g
     inkscape:label="Ebene 1"
     inkscape:groupmode="layer"
     id="layer1"><path
       d="m 47.770761,12 h 32.458478 c 10.300026,0 15.450039,0 20.993811,1.752927 v 0 c 6.05287,2.203067 10.82096,6.971151 13.02402,13.024028 C 116,32.320722 116,37.470735 116,47.770761 v 32.458478 c 0,10.300026 0,15.450039 -1.75293,20.993811 v 0 c -2.20306,6.05287 -6.97115,10.82096 -13.02402,13.02402 C 95.679278,116 90.529265,116 80.229239,116 H 47.770761 c -10.300026,0 -15.450039,0 -20.993806,-1.75293 v 0 C 20.724078,112.04401 15.955994,107.27592 13.752927,101.22305 12,95.679278 12,90.529265 12,80.229239 V 47.770761 c 0,-10.300026 0,-15.450039 1.752927,-20.993806 v 0 C 15.955994,20.724078 20.724078,15.955994 26.776955,13.752927 32.320722,12 37.470735,12 47.770761,12 Z"
       fill="#ffffff"
       id="path1"
       style="fill:url(#linearGradient2);fill-opacity:1" /><g
       inkscape:label="Ebene 1"
       id="layer1-6"
       transform="translate(438.61894,-644.26727)"><g
         transform="matrix(3.0907663,0,0,3.0907663,-549.96589,-905.63762)"
         id="g2"
         style="fill:#3681b0;fill-opacity:1"><g
           transform="scale(0.9156,1.092)"
           style="fill:#3681b0;fill-opacity:1"
           id="g1" /></g><path
         d="m -340.72244,666.42948 c 1.7128,8e-5 2.66966,1.29182 2.8713,3.87505 l -1.43583,12.1673 h 0.52884 c 0,0 -1.63731,3.63449 -3.09931,8.74358 -0.55431,4.38765 -1.48606,8.44201 -2.79595,12.16729 -1.15884,3.8451 -1.73791,7.39151 -1.73791,10.63584 l -2.19141,6.40007 c -6e-5,0.54086 0.80581,5.13701 -0.90699,5.13701 l 0.30224,0.36046 v 1.26187 h -0.52884 c 0.35257,1.26187 0,2.52332 0,2.52332 v 0.36047 c 0.75558,10e-6 1.13338,0.54086 1.13338,1.62216 l -3.17374,1.26187 0.30223,0.36047 v 0.27034 c -6e-5,0.42058 -0.37779,0.63073 -1.13338,0.63073 v 0.36046 c 0.95722,10e-6 1.43547,0.21031 1.43583,0.63072 -1.36013,0.54087 -3.14863,3.21438 -5.36621,8.02013 -2.26676,4.2653 -4.23071,6.40006 -5.89328,6.40006 h -0.60454 c -1.25931,-0.96149 -2.29222,-4.14549 -3.09804,-9.55158 -3.22397,-8.23107 -4.8356,-13.06592 -4.8356,-14.50878 -4e-5,-3.72487 -1.03256,-7.69105 -3.09804,-11.89729 -0.55431,-1.86264 -0.9321,-4.20539 -1.13338,-7.02868 l -1.36012,-0.36046 c -3.4256,6.18912 -5.21409,11.02397 -5.36621,14.50878 -0.95721,2.04279 -1.7128,4.50578 -2.26675,7.39151 1.11382,0.43448 0.35268,1.562 -0.3021,0.90132 -0.70535,1.62217 -1.6371,6.13006 -2.79595,13.51734 -0.90662,3.42448 -2.04036,5.13862 -3.40012,5.13862 -3.82745,-1.50193 -7.02878,-3.96534 -9.59693,-7.39151 -0.4029,10e-6 -1.05802,-1.71245 -1.96465,-5.13861 -0.55396,10e-6 -0.93211,-1.71245 -1.13338,-5.13862 -1.91408,-4.86438 -3.22397,-10.42489 -3.93003,-16.67307 v -9.37439 h -0.30224 l -1.36012,0.36046 v -0.36046 c 1e-5,-0.4205 0.4535,-0.63073 1.36012,-0.63073 l -0.30223,-5.40862 v -4.23577 l -2.1914,-13.51734 v -5.76724 c 0.95721,-3.60462 2.61942,-5.40862 4.9877,-5.40862 l 10e-4,0.63072 c 3.67888,4.80533 5.84376,8.86391 6.49817,12.1673 l 0.60454,0.63073 v 0.72101 c 0.75559,2.76379 1.3099,4.14548 1.66221,4.14548 h 0.60455 c 0,0 0.57914,1.9828 0.22681,3.24425 l 0.30217,0.63072 c 0.70535,10.03254 2.01488,17.63499 3.93002,22.79892 l 1.13339,0.90115 h 0.60454 c 0.75557,4e-5 2.34245,-3.51476 4.76131,-10.54302 1.56175,-3.184 2.69514,-5.97817 3.40014,-8.38294 l -0.30224,-0.99144 c 1.56175,-2.34318 3.17374,-3.51477 4.8356,-3.51477 h 0.52884 c 1.05767,6e-5 1.81361,0.6611 2.26675,1.98246 1.41035,1.98288 2.54373,4.95721 3.40013,8.92297 l 4.23071,9.37438 c 0.55396,0.66111 0.83129,1.41207 0.83129,2.2529 1.5614,3.54471 2.9721,5.88957 4.2307,7.02868 h 0.90664 c 1.05767,2e-5 2.46838,-4.38766 4.2307,-13.15874 0.3022,4e-5 1.13338,-2.34318 2.49351,-7.02868 v -0.36046 l 1.13337,-1.26162 c 2.16594,-7.75011 4.15643,-13.75782 5.9711,-18.02313 0.60454,-8.77108 1.43547,-13.15873 2.4935,-13.15873 l 3.40014,-1.62217"
         id="path1-29-9"
         style="fill:#3681b0;fill-opacity:1;stroke-width:0.386314"
         sodipodi:nodetypes="ccccccccccccccccccccccsccccccccccccccccccscccccsccccscccccccccsccccccsccccccc" /><circle
         style="fill:none;fill-opacity:1;stroke:#132c3d;stroke-width:8;stroke-dasharray:none;stroke-opacity:1"
         id="path2-6"
         cx="-387.45715"
         cy="695.36267"
         r="24.138617" /><path
         style="fill:none;fill-opacity:1;stroke:#132c3d;stroke-width:12;stroke-linecap:round;stroke-dasharray:none;stroke-opacity:1"
         d="m -361.46157,721.35826 20.72954,21.25311"
         id="path3-0"
         sodipodi:nodetypes="cc" /><path
         style="fill:none;fill-opacity:1;stroke:#132c3d;stroke-width:6;stroke-linecap:round;stroke-dasharray:none;stroke-opacity:1"
         d="m -370.42686,712.09679 9.62583,9.62583"
         id="path4-6" /></g></g></svg>
